<svg xmlns="http://www.w3.org/2000/svg" width="200" height="40" fill="none" class="UserLogo variant-- " viewBox="0 0 200 40" preserveAspectRatio="xMidYMid meet"><path fill="var(--userLogoColor, #000)" fill-rule="evenodd" d="M119.797 6.018l9.956 27.154h3.447v.196h-10.97v-.195h3.23l-3.274-8.93h-6.646v.004l.036.104c.265.788.397 1.614.389 2.445v3.347c0 1.722.76 3.467 2.213 3.467.852 0 1.533-.3 2.344-1.042l.115.108c-.88.929-1.946 1.324-3.545 1.324-1.206 0-2.239-.29-3.069-.862l-.158-.113c-1.093-.827-1.803-2.178-2.108-4.017l-.049-.296-.051-.45-.005-.077-1.833 4.985h2.6v.196h-5.439v-.196h2.628l2.011-5.474v-.012a18.476 18.476 0 01-.038-.97v-2.39c0-2.937-2.184-4.622-5.993-4.622h-3.743v13.47h3.244v.195H92.412v-.195h3.23l-3.274-8.93h-9.085l-3.244 8.83.136-.022c4.259-.734 6.217-3.984 6.244-7.407h.197v7.724H66L81.303 7.112H75.15c-5.1 0-7.408 3.94-7.444 7.866h-.197V6.916h18.576l-.113.196-15.188 26.06h7.99c.2 0 .397-.01.596-.026a7.45 7.45 0 00.4-.039l.05-.005L89.775 6h.197l.007.018 7.824 21.339V7.112h-3.222v-.198h11.087c5.329 0 9.049 2.735 9.049 6.653 0 2.857-2.548 5.228-6.338 5.902l-.696.09.701.07c2.298.264 4.124.97 5.417 2.101l.009.008L119.594 6h.196l.007.018zm-4.354 17.98l.02.049h6.649l-4.466-12.182-3.676 10.014.019.019.187.185A6.043 6.043 0 01115.443 24zm-13.595-4.492V7.112h2.856c3.816 0 5.831 2.247 5.831 6.496 0 4.52-1.156 5.898-4.947 5.898h-3.74zm-14.017-7.64l-4.476 12.181h8.942l-4.466-12.182z" clip-rule="evenodd"></path><title>Zara logo</title></svg>